<svg width="44" height="60" viewBox="0 0 44 60" fill="none" xmlns="http://www.w3.org/2000/svg">
<path d="M5.46037 12.8013C4.56403 13.6976 4.56403 15.1427 5.46037 16.0391L20.6616 31.2403C21.375 31.9537 22.5274 31.9537 23.2409 31.2403L38.4421 16.0391C39.3384 15.1427 39.3384 13.6976 38.4421 12.8013C37.5457 11.9049 36.1006 11.9049 35.2043 12.8013L21.9421 26.0452L8.67989 12.783C7.80184 11.9049 6.33842 11.9049 5.46037 12.8013Z" fill="#F48A17"/>
<path d="M5.46037 28.899C4.56403 29.7954 4.56403 31.2405 5.46037 32.1368L20.6616 47.338C21.375 48.0515 22.5274 48.0515 23.2409 47.338L38.4421 32.1368C39.3384 31.2405 39.3384 29.7954 38.4421 28.899C37.5457 28.0027 36.1006 28.0027 35.2043 28.899L21.9421 42.1429L8.67989 28.8807C7.80184 28.0027 6.33842 28.0027 5.46037 28.899Z" fill="#F48A17"/>
</svg>
