<svg width="30" height="41" viewBox="0 0 30 41" fill="none" xmlns="http://www.w3.org/2000/svg">
<path d="M3.73123 8.74766C3.11873 9.36016 3.11873 10.3477 3.73123 10.9602L14.1187 21.3477C14.6062 21.8352 15.3937 21.8352 15.8812 21.3477L26.2687 10.9602C26.8812 10.3477 26.8812 9.36016 26.2687 8.74766C25.6562 8.13516 24.6687 8.13516 24.0562 8.74766L14.9937 17.7977L5.93123 8.73516C5.33123 8.13516 4.33123 8.13516 3.73123 8.74766Z" fill="#F48A17" fill-opacity="0.5"/>
<path d="M3.73123 19.7477C3.11873 20.3602 3.11873 21.3477 3.73123 21.9602L14.1187 32.3477C14.6062 32.8352 15.3937 32.8352 15.8812 32.3477L26.2687 21.9602C26.8812 21.3477 26.8812 20.3602 26.2687 19.7477C25.6562 19.1352 24.6687 19.1352 24.0562 19.7477L14.9937 28.7977L5.93123 19.7352C5.33123 19.1352 4.33123 19.1352 3.73123 19.7477Z" fill="#F48A17" fill-opacity="0.5"/>
</svg>
