<svg width="196" height="51" viewBox="0 0 196 51" fill="none" xmlns="http://www.w3.org/2000/svg">
<path d="M60.5856 34.2415C59.4371 34.2415 58.5051 33.9336 57.7896 33.3178C57.0906 32.6854 56.7411 31.8284 56.7411 30.7466L57.3401 31.5704H56.8161V33.9918H54.8441V15.7688H56.8161V19.688L56.7911 22.6836H57.2656L56.7411 23.5073C56.7411 22.4423 57.0991 21.5935 57.8146 20.9611C58.5301 20.3287 59.4536 20.0125 60.5856 20.0125C61.9666 20.0125 63.0736 20.4702 63.9056 21.3855C64.7376 22.3008 65.1536 23.5406 65.1536 25.105V29.174C65.1536 30.7217 64.7376 31.9532 63.9056 32.8685C63.0736 33.7838 61.9666 34.2415 60.5856 34.2415ZM59.9616 32.519C60.9601 32.519 61.7421 32.2195 62.3081 31.6204C62.8736 31.0212 63.1566 30.1725 63.1566 29.0741V25.1799C63.1566 24.0815 62.8736 23.2328 62.3081 22.6336C61.7421 22.0345 60.9601 21.735 59.9616 21.735C58.9961 21.735 58.2306 22.0428 57.6646 22.6586C57.0991 23.2577 56.8161 24.0981 56.8161 25.1799V29.0741C56.8161 30.1558 57.0991 31.0046 57.6646 31.6204C58.2306 32.2195 58.9961 32.519 59.9616 32.519ZM74.1306 34.2415C73.0656 34.2415 72.1421 34.0334 71.3596 33.6174C70.5776 33.1847 69.9701 32.5773 69.5376 31.7951C69.1046 31.0129 68.8886 30.1059 68.8886 29.0741V25.1799C68.8886 24.1314 69.1046 23.2244 69.5376 22.4589C69.9701 21.6767 70.5776 21.0776 71.3596 20.6616C72.1421 20.2289 73.0656 20.0125 74.1306 20.0125C75.1956 20.0125 76.1196 20.2289 76.9016 20.6616C77.6836 21.0776 78.2911 21.6767 78.7241 22.4589C79.1566 23.2244 79.3731 24.1314 79.3731 25.1799V27.6013H70.8356V29.0741C70.8356 30.1891 71.1186 31.0545 71.6841 31.6703C72.2666 32.2694 73.0821 32.5689 74.1306 32.5689C75.0126 32.5689 75.7281 32.3943 76.2776 32.0448C76.8431 31.6953 77.2011 31.1877 77.3511 30.522H79.3231C79.1401 31.6703 78.5826 32.5773 77.6506 33.243C76.7186 33.9086 75.5451 34.2415 74.1306 34.2415ZM77.4256 26.2782V25.1799C77.4256 24.0649 77.1431 23.2078 76.5771 22.6087C76.0111 21.9929 75.1956 21.685 74.1306 21.685C73.0821 21.685 72.2666 21.9929 71.6841 22.6087C71.1186 23.2078 70.8356 24.0649 70.8356 25.1799V26.0536H77.6256L77.4256 26.2782Z" fill="#55A2A1"/>
<path d="M82.783 33.9918V15.7688H85.9035V23.0829H90.796V15.7688H93.9165V33.9918H90.796V25.9786H85.9035V33.9918H82.783ZM96.9775 33.9918V31.146H101.77V23.0829H97.6015V20.2621H104.765V31.146H109.009V33.9918H96.9775ZM103.018 17.9655C102.386 17.9655 101.886 17.8074 101.52 17.4912C101.154 17.1584 100.971 16.7173 100.971 16.1681C100.971 15.619 101.154 15.1863 101.52 14.8701C101.886 14.5372 102.386 14.3708 103.018 14.3708C103.65 14.3708 104.15 14.5372 104.516 14.8701C104.882 15.1863 105.065 15.619 105.065 16.1681C105.065 16.7173 104.882 17.1584 104.516 17.4912C104.15 17.8074 103.65 17.9655 103.018 17.9655ZM113.093 38.4851V35.889H117.162C117.861 35.889 118.386 35.7142 118.735 35.3648C119.085 35.0319 119.259 34.5493 119.259 33.9169V32.8934L119.309 30.3222H118.635L119.309 29.6482C119.309 30.7632 118.976 31.6369 118.311 32.2693C117.662 32.8851 116.78 33.193 115.665 33.193C114.267 33.193 113.152 32.7187 112.32 31.7701C111.504 30.8215 111.096 29.54 111.096 27.9258V25.2547C111.096 23.6571 111.504 22.384 112.32 21.4354C113.152 20.4868 114.267 20.0125 115.665 20.0125C116.78 20.0125 117.662 20.3287 118.311 20.9611C118.976 21.5768 119.309 22.4422 119.309 23.5572L118.635 22.8832H119.309L119.234 20.2621H122.355V33.9918C122.355 35.3731 121.897 36.4631 120.982 37.262C120.066 38.0774 118.81 38.4851 117.212 38.4851H113.093ZM116.713 30.497C117.512 30.497 118.128 30.264 118.56 29.798C119.01 29.3154 119.234 28.6497 119.234 27.8009V25.4045C119.234 24.5557 119.01 23.8984 118.56 23.4324C118.128 22.9498 117.512 22.7085 116.713 22.7085C115.914 22.7085 115.298 22.9415 114.866 23.4074C114.433 23.8735 114.217 24.5391 114.217 25.4045V27.8009C114.217 28.6663 114.433 29.332 114.866 29.798C115.298 30.264 115.914 30.497 116.713 30.497ZM125.44 33.9918V15.7688H128.561V20.2621L128.486 22.8832H129.335L128.486 23.6071C128.486 22.4755 128.81 21.5935 129.459 20.9611C130.125 20.3287 131.032 20.0125 132.18 20.0125C133.528 20.0125 134.602 20.4618 135.401 21.3605C136.216 22.2591 136.624 23.4657 136.624 24.9801V33.9918H133.503V25.3046C133.503 24.4725 133.287 23.8319 132.854 23.3825C132.422 22.9332 131.814 22.7085 131.032 22.7085C130.267 22.7085 129.659 22.9415 129.21 23.4074C128.777 23.8735 128.561 24.5391 128.561 25.4045V33.9918H125.44ZM147.323 33.9918C146.425 33.9918 145.634 33.8087 144.952 33.4426C144.286 33.0765 143.762 32.5606 143.379 31.8949C142.996 31.2126 142.805 30.4304 142.805 29.5484V18.5896H138.411V15.7688H145.925V29.5484C145.925 30.0476 146.067 30.4471 146.35 30.7466C146.649 31.0296 147.049 31.171 147.548 31.171H151.692V33.9918H147.323ZM159.446 34.2165C158.281 34.2165 157.265 34.0001 156.4 33.5674C155.551 33.1181 154.886 32.494 154.403 31.6952C153.937 30.8797 153.704 29.9228 153.704 28.8244V25.4295C153.704 24.3311 153.937 23.3825 154.403 22.5837C154.886 21.7682 155.551 21.1441 156.4 20.7114C157.265 20.2621 158.281 20.0374 159.446 20.0374C160.627 20.0374 161.642 20.2621 162.491 20.7114C163.34 21.1441 163.997 21.7682 164.463 22.5837C164.946 23.3825 165.187 24.3228 165.187 25.4045V28.8244C165.187 29.9228 164.946 30.8797 164.463 31.6952C163.997 32.494 163.34 33.1181 162.491 33.5674C161.642 34.0001 160.627 34.2165 159.446 34.2165ZM159.446 31.4955C160.278 31.4955 160.918 31.2708 161.368 30.8215C161.834 30.3555 162.067 29.6898 162.067 28.8244V25.4295C162.067 24.5474 161.834 23.8818 161.368 23.4324C160.918 22.9831 160.278 22.7584 159.446 22.7584C158.63 22.7584 157.989 22.9831 157.523 23.4324C157.057 23.8818 156.824 24.5474 156.824 25.4295V28.8244C156.824 29.6898 157.057 30.3555 157.523 30.8215C157.989 31.2708 158.63 31.4955 159.446 31.4955ZM172.142 34.2414C170.727 34.2414 169.612 33.867 168.797 33.1181C167.982 32.3692 167.574 31.3623 167.574 30.0976C167.574 28.7495 168.023 27.7094 168.922 26.9772C169.82 26.245 171.094 25.8788 172.741 25.8788H176.161V24.7055C176.161 24.0398 175.945 23.5239 175.512 23.1578C175.079 22.775 174.489 22.5837 173.74 22.5837C173.057 22.5837 172.492 22.7334 172.042 23.033C171.593 23.3326 171.327 23.7403 171.243 24.2562H168.198C168.348 22.9581 168.93 21.9263 169.945 21.1608C170.96 20.3952 172.259 20.0125 173.84 20.0125C175.52 20.0125 176.843 20.4368 177.809 21.2856C178.791 22.1177 179.281 23.2493 179.281 24.6806V33.9918H176.261V31.5953H175.762L176.261 30.9213C176.261 31.9365 175.886 32.7436 175.138 33.3428C174.389 33.9419 173.39 34.2414 172.142 34.2414ZM173.166 31.8949C174.048 31.8949 174.763 31.6702 175.312 31.2209C175.878 30.7716 176.161 30.1891 176.161 29.4735V27.8009H172.791C172.159 27.8009 171.651 27.984 171.268 28.3501C170.886 28.7163 170.694 29.1989 170.694 29.798C170.694 30.447 170.911 30.9629 171.343 31.3457C171.793 31.7118 172.4 31.8949 173.166 31.8949ZM186.711 34.2414C185.346 34.2414 184.239 33.7671 183.391 32.8185C182.559 31.8699 182.142 30.5968 182.142 28.9992V25.2797C182.142 23.6654 182.559 22.384 183.391 21.4354C184.223 20.4868 185.329 20.0125 186.711 20.0125C187.842 20.0125 188.741 20.337 189.407 20.9861C190.072 21.6185 190.405 22.4921 190.405 23.6071L189.706 22.8832H190.43L190.33 19.6131V15.7688H193.451V33.9918H190.405V31.3707H189.706L190.405 30.6467C190.405 31.7618 190.072 32.6438 189.407 33.2928C188.741 33.9252 187.842 34.2414 186.711 34.2414ZM187.809 31.5454C188.608 31.5454 189.224 31.3125 189.656 30.8464C190.106 30.3638 190.33 29.6981 190.33 28.8494V25.4045C190.33 24.5557 190.106 23.8984 189.656 23.4324C189.224 22.9498 188.608 22.7085 187.809 22.7085C187.01 22.7085 186.386 22.9415 185.937 23.4074C185.488 23.8735 185.263 24.5391 185.263 25.4045V28.8494C185.263 29.7148 185.488 30.3805 185.937 30.8464C186.386 31.3125 187.01 31.5454 187.809 31.5454Z" fill="#1C3E5F"/>
<path d="M36.8213 21.519C38.1408 20.7172 39.8299 21.664 39.8347 23.2079L39.8745 36.2261C39.8766 36.921 39.515 37.5663 38.9211 37.9272L27.7705 44.7027C26.4566 45.5011 24.7731 44.5655 24.7573 43.0281L24.7391 41.2545V29.9763C24.7391 29.2836 25.1005 28.641 25.6925 28.2813L36.8213 21.519Z" fill="#F48A17"/>
<path d="M26.4102 43.6384L7.81152 33.2141" stroke="#F48A17" stroke-width="2.47923" stroke-linecap="round"/>
<path fill-rule="evenodd" clip-rule="evenodd" d="M22.5374 40.052L24.783 41.3122L24.7515 38.7373C24.5372 39.1187 24.2229 39.4506 23.8198 39.69C23.4166 39.9294 22.9748 40.0464 22.5374 40.052Z" fill="#F48A17"/>
<path d="M22.5209 34.3093C22.5089 35.8531 20.8153 36.7919 19.4997 35.984L8.40621 29.1714C7.81406 28.8077 7.45541 28.1607 7.46081 27.4658L7.56226 14.4185C7.57421 12.881 9.25531 11.9412 10.5713 12.7363L12.0894 13.6536L21.6819 19.585C22.2711 19.9493 22.6275 20.5947 22.6222 21.2874L22.5209 34.3093Z" fill="#55A2A1"/>
<path d="M9.18298 13.8214L27.8305 3.48486" stroke="#55A2A1" stroke-width="2.47923" stroke-linecap="round"/>
<path fill-rule="evenodd" clip-rule="evenodd" d="M14.2704 12.4141L12.0176 13.6613L14.2241 14.9886C14.0125 14.6058 13.8954 14.1639 13.9038 13.6952C13.9122 13.2264 14.0451 12.789 14.2704 12.4141Z" fill="#55A2A1"/>
<path d="M18.7496 15.4992C17.4051 14.7402 17.4051 12.8038 18.7496 12.0448L30.0862 5.64512C30.6913 5.30352 31.4311 5.30352 32.0363 5.64512L43.3985 12.0593C44.7374 12.8151 44.7444 14.7411 43.411 15.5066L41.8727 16.3897L32.0344 21.9039C31.4302 22.2426 30.6929 22.2414 30.0897 21.9009L18.7496 15.4992Z" fill="#1C3E5F"/>
<path d="M43.1351 13.7661V35.0869" stroke="#1C3E5F" stroke-width="2.47923" stroke-linecap="round"/>
<path fill-rule="evenodd" clip-rule="evenodd" d="M41.9 18.8982L41.9014 16.3232L39.6707 17.6096C40.1081 17.6101 40.5513 17.7219 40.9573 17.9566C41.3632 18.1912 41.6813 18.5194 41.9 18.8982Z" fill="#1C3E5F"/>
</svg>
