<svg width="500" height="402" viewBox="0 0 500 402" fill="none" xmlns="http://www.w3.org/2000/svg">
<path d="M488.01 291.032H60.8469C57.931 291.029 55.1354 289.865 53.0735 287.795C51.0117 285.725 49.8518 282.919 49.8485 279.992V15.5991C49.8509 13.4547 50.7006 11.3989 52.2111 9.8826C53.7217 8.36629 55.7697 7.51334 57.906 7.51086H490.812C492.985 7.51334 495.069 8.38103 496.605 9.92355C498.142 11.4661 499.006 13.5575 499.009 15.7389V279.992C499.006 282.919 497.846 285.725 495.784 287.795C493.722 289.865 490.926 291.029 488.01 291.032Z" fill="#F2F2F2"/>
<path d="M474.199 277.093H76.0932C70.2574 277.093 65.5096 272.63 65.5096 267.145V36.9076C65.5096 32.8395 69.0278 29.5297 73.3523 29.5297H476.81C481.206 29.5297 484.782 32.8941 484.782 37.0292V267.145C484.782 272.63 480.034 277.093 474.199 277.093Z" fill="white"/>
<path d="M498.854 16.9729H49.6929V11.3523C49.6972 8.41564 50.8617 5.60054 52.9311 3.52462C55.0005 1.4487 57.8057 0.281488 60.7313 0.279053H487.816C490.742 0.281463 493.547 1.44866 495.616 3.52459C497.686 5.60052 498.85 8.41563 498.854 11.3523V16.9729Z" fill="#3F3D56"/>
<path d="M69.7541 11.508C71.331 11.508 72.6093 10.2248 72.6093 8.642C72.6093 7.05915 71.331 5.776 69.7541 5.776C68.1773 5.776 66.8989 7.05915 66.8989 8.642C66.8989 10.2248 68.1773 11.508 69.7541 11.508Z" fill="white"/>
<path d="M80.5918 11.508C82.1687 11.508 83.447 10.2248 83.447 8.642C83.447 7.05915 82.1687 5.776 80.5918 5.776C79.0149 5.776 77.7366 7.05915 77.7366 8.642C77.7366 10.2248 79.0149 11.508 80.5918 11.508Z" fill="white"/>
<path d="M91.4297 11.508C93.0066 11.508 94.2849 10.2248 94.2849 8.642C94.2849 7.05915 93.0066 5.776 91.4297 5.776C89.8528 5.776 88.5745 7.05915 88.5745 8.642C88.5745 10.2248 89.8528 11.508 91.4297 11.508Z" fill="white"/>
<path d="M265.702 79.8718H187.842C186.681 79.8718 185.568 79.4089 184.747 78.585C183.926 77.7611 183.465 76.6436 183.465 75.4784C183.465 74.3132 183.926 73.1958 184.747 72.3719C185.568 71.548 186.681 71.0851 187.842 71.0851H265.702C266.863 71.0851 267.977 71.548 268.797 72.3719C269.618 73.1958 270.079 74.3132 270.079 75.4784C270.079 76.6436 269.618 77.7611 268.797 78.585C267.977 79.4089 266.863 79.8718 265.702 79.8718Z" fill="#CCCCCC"/>
<path d="M362.452 79.8718H284.591C283.43 79.8718 282.317 79.4089 281.496 78.585C280.675 77.7611 280.214 76.6436 280.214 75.4784C280.214 74.3132 280.675 73.1958 281.496 72.3719C282.317 71.548 283.43 71.0851 284.591 71.0851H362.452C363.612 71.0851 364.726 71.548 365.547 72.3719C366.367 73.1958 366.828 74.3132 366.828 75.4784C366.828 76.6436 366.367 77.7611 365.547 78.585C364.726 79.4089 363.612 79.8718 362.452 79.8718Z" fill="#CCCCCC"/>
<path d="M362.452 96.5179H227.002C225.841 96.5179 224.728 96.055 223.907 95.2311C223.086 94.4072 222.625 93.2897 222.625 92.1245C222.625 90.9594 223.086 89.8419 223.907 89.018C224.728 88.1941 225.841 87.7312 227.002 87.7312H362.452C363.613 87.7312 364.726 88.1941 365.547 89.018C366.368 89.8419 366.829 90.9594 366.829 92.1245C366.829 93.2897 366.368 94.4072 365.547 95.2311C364.726 96.055 363.613 96.5179 362.452 96.5179Z" fill="#CCCCCC"/>
<path d="M265.702 62.9897H187.841C186.681 62.9882 185.569 62.5247 184.75 61.701C183.93 60.8772 183.47 59.7606 183.47 58.5963C183.47 57.4321 183.93 56.3154 184.75 55.4917C185.569 54.6679 186.681 54.2044 187.841 54.203H265.702C266.277 54.2023 266.847 54.3154 267.379 54.5359C267.91 54.7563 268.393 55.0798 268.8 55.4879C269.207 55.8959 269.53 56.3804 269.751 56.9138C269.971 57.4472 270.084 58.0189 270.084 58.5963C270.084 59.1737 269.971 59.7455 269.751 60.2788C269.53 60.8122 269.207 61.2968 268.8 61.7048C268.393 62.1129 267.91 62.4363 267.379 62.6568C266.847 62.8773 266.277 62.9904 265.702 62.9897Z" fill="#CCCCCC"/>
<path d="M308.548 63.2224H286.434C285.273 63.2224 284.16 62.7595 283.339 61.9356C282.518 61.1117 282.057 59.9942 282.057 58.829C282.057 57.6638 282.518 56.5464 283.339 55.7224C284.16 54.8985 285.273 54.4357 286.434 54.4357H308.548C309.709 54.4357 310.822 54.8985 311.643 55.7224C312.464 56.5464 312.925 57.6638 312.925 58.829C312.925 59.9942 312.464 61.1117 311.643 61.9356C310.822 62.7595 309.709 63.2224 308.548 63.2224Z" fill="#CCCCCC"/>
<path d="M209.955 96.5179H187.841C186.681 96.5164 185.569 96.0529 184.75 95.2292C183.93 94.4054 183.47 93.2888 183.47 92.1245C183.47 90.9603 183.93 89.8436 184.75 89.0199C185.569 88.1961 186.681 87.7326 187.841 87.7312H209.955C210.531 87.7305 211.1 87.8436 211.632 88.0641C212.164 88.2845 212.647 88.608 213.054 89.0161C213.461 89.4241 213.784 89.9087 214.004 90.442C214.224 90.9754 214.338 91.5471 214.338 92.1245C214.338 92.7019 214.224 93.2737 214.004 93.807C213.784 94.3404 213.461 94.825 213.054 95.233C212.647 95.641 212.164 95.9645 211.632 96.185C211.1 96.4055 210.531 96.5186 209.955 96.5179Z" fill="#CCCCCC"/>
<path d="M265.702 235.767H187.842C186.681 235.767 185.568 235.304 184.747 234.48C183.926 233.656 183.465 232.539 183.465 231.374C183.465 230.208 183.926 229.091 184.747 228.267C185.568 227.443 186.681 226.98 187.842 226.98H265.702C266.277 226.98 266.846 227.094 267.377 227.315C267.908 227.535 268.391 227.859 268.797 228.267C269.204 228.675 269.526 229.159 269.746 229.692C269.966 230.225 270.079 230.797 270.079 231.374C270.079 231.951 269.966 232.522 269.746 233.055C269.526 233.588 269.204 234.072 268.797 234.48C268.391 234.888 267.908 235.212 267.377 235.432C266.846 235.653 266.277 235.767 265.702 235.767Z" fill="#CCCCCC"/>
<path d="M362.452 235.767H284.591C283.43 235.767 282.317 235.304 281.496 234.48C280.675 233.656 280.214 232.539 280.214 231.374C280.214 230.208 280.675 229.091 281.496 228.267C282.317 227.443 283.43 226.98 284.591 226.98H362.452C363.026 226.98 363.596 227.094 364.127 227.315C364.658 227.535 365.14 227.859 365.547 228.267C365.953 228.675 366.275 229.159 366.495 229.692C366.715 230.225 366.828 230.797 366.828 231.374C366.828 231.951 366.715 232.522 366.495 233.055C366.275 233.588 365.953 234.072 365.547 234.48C365.14 234.888 364.658 235.212 364.127 235.432C363.596 235.653 363.026 235.767 362.452 235.767Z" fill="#CCCCCC"/>
<path d="M362.452 252.417H227.002C225.841 252.417 224.728 251.954 223.907 251.13C223.086 250.306 222.625 249.189 222.625 248.024C222.625 246.858 223.086 245.741 223.907 244.917C224.728 244.093 225.841 243.63 227.002 243.63H362.452C363.027 243.63 363.597 243.743 364.129 243.963C364.66 244.184 365.144 244.507 365.551 244.915C365.958 245.323 366.28 245.808 366.501 246.341C366.721 246.874 366.834 247.446 366.834 248.024C366.834 248.601 366.721 249.173 366.501 249.706C366.28 250.239 365.958 250.724 365.551 251.132C365.144 251.54 364.66 251.864 364.129 252.084C363.597 252.305 363.027 252.418 362.452 252.417Z" fill="#CCCCCC"/>
<path d="M265.702 218.889H187.842C186.681 218.889 185.568 218.426 184.747 217.602C183.926 216.778 183.465 215.661 183.465 214.495C183.465 213.33 183.926 212.213 184.747 211.389C185.568 210.565 186.681 210.102 187.842 210.102H265.702C266.863 210.102 267.977 210.565 268.797 211.389C269.618 212.213 270.079 213.33 270.079 214.495C270.079 215.661 269.618 216.778 268.797 217.602C267.977 218.426 266.863 218.889 265.702 218.889Z" fill="#CCCCCC"/>
<path d="M308.548 219.121H286.434C285.273 219.121 284.16 218.659 283.339 217.835C282.518 217.011 282.057 215.893 282.057 214.728C282.057 213.563 282.518 212.445 283.339 211.622C284.16 210.798 285.273 210.335 286.434 210.335H308.548C309.709 210.335 310.822 210.798 311.643 211.622C312.464 212.445 312.925 213.563 312.925 214.728C312.925 215.893 312.464 217.011 311.643 217.835C310.822 218.659 309.709 219.121 308.548 219.121Z" fill="#CCCCCC"/>
<path d="M209.956 252.417H187.842C186.681 252.417 185.568 251.954 184.747 251.13C183.926 250.306 183.465 249.189 183.465 248.024C183.465 246.858 183.926 245.741 184.747 244.917C185.568 244.093 186.681 243.63 187.842 243.63H209.956C210.531 243.63 211.101 243.743 211.632 243.963C212.164 244.184 212.647 244.507 213.054 244.915C213.461 245.323 213.784 245.808 214.004 246.341C214.225 246.874 214.338 247.446 214.338 248.024C214.338 248.601 214.225 249.173 214.004 249.706C213.784 250.239 213.461 250.724 213.054 251.132C212.647 251.54 212.164 251.864 211.632 252.084C211.101 252.305 210.531 252.418 209.956 252.417Z" fill="#CCCCCC"/>
<path d="M246.8 188.334C245.148 188.338 243.561 187.686 242.385 186.521L213.117 157.51C212.542 156.94 212.086 156.262 211.774 155.514C211.463 154.766 211.303 153.964 211.303 153.153C211.303 152.342 211.463 151.54 211.774 150.792C212.086 150.044 212.542 149.366 213.117 148.796L242.267 119.902C243.481 118.704 245.117 118.035 246.82 118.041C248.522 118.046 250.154 118.725 251.361 119.931C252.569 121.146 253.247 122.793 253.247 124.509C253.247 126.226 252.569 127.873 251.361 129.088L229.7 150.831C229.025 151.51 228.646 152.43 228.646 153.39C228.646 154.349 229.025 155.269 229.7 155.948L251.244 177.573C252.123 178.454 252.723 179.578 252.966 180.801C253.209 182.025 253.084 183.293 252.608 184.446C252.132 185.598 251.326 186.583 250.292 187.275C249.258 187.968 248.043 188.336 246.8 188.335V188.334Z" fill="#55A2A1"/>
<path d="M293.437 188.334C292.194 188.336 290.978 187.968 289.944 187.275C288.91 186.583 288.104 185.598 287.629 184.446C287.153 183.293 287.028 182.025 287.271 180.801C287.514 179.578 288.113 178.454 288.993 177.573L310.537 155.948C311.211 155.269 311.59 154.349 311.59 153.39C311.59 152.43 311.211 151.51 310.537 150.831L288.876 129.088C288.277 128.487 287.801 127.773 287.477 126.987C287.153 126.202 286.986 125.36 286.986 124.509C286.986 123.659 287.153 122.817 287.477 122.031C287.802 121.246 288.277 120.532 288.876 119.931C290.083 118.725 291.715 118.046 293.417 118.04C295.12 118.035 296.756 118.704 297.97 119.902L327.12 148.796C327.695 149.366 328.151 150.044 328.462 150.792C328.774 151.54 328.934 152.342 328.934 153.153C328.934 153.964 328.774 154.766 328.462 155.514C328.151 156.262 327.695 156.94 327.12 157.51L297.852 186.521C296.676 187.686 295.089 188.338 293.437 188.334Z" fill="#55A2A1"/>
<path d="M100.341 187.245C109.382 187.245 116.712 179.887 116.712 170.811C116.712 161.735 109.382 154.378 100.341 154.378C91.2989 154.378 83.969 161.735 83.969 170.811C83.969 179.887 91.2989 187.245 100.341 187.245Z" fill="#FFB8B8"/>
<path d="M45.022 367.742L49.1674 374.812L78.3045 362.126L72.1861 351.693L45.022 367.742Z" fill="#FFB8B8"/>
<path d="M46.264 364.581L54.4277 378.503L54.4281 378.503C55.1113 379.668 55.5591 380.957 55.7461 382.296C55.9331 383.635 55.8556 384.998 55.5179 386.306C55.1802 387.615 54.589 388.844 53.7781 389.924C52.9671 391.003 51.9523 391.912 50.7916 392.597L50.5044 392.767L37.138 369.973L46.264 364.581Z" fill="#2F2E41"/>
<path d="M93.0522 393.208L101.224 393.207L105.112 361.568L93.0509 361.568L93.0522 393.208Z" fill="#FFB8B8"/>
<path d="M90.9687 390.53L107.062 390.529H107.063C108.41 390.529 109.743 390.795 110.988 391.313C112.232 391.83 113.363 392.588 114.315 393.544C115.267 394.5 116.023 395.635 116.538 396.884C117.054 398.133 117.319 399.472 117.319 400.824V401.159L90.9692 401.16L90.9687 390.53Z" fill="#2F2E41"/>
<path d="M60.1989 374.04C59.7286 374.041 59.2649 373.93 58.8452 373.717C58.4255 373.504 58.0617 373.194 57.7833 372.814L49.902 362.069C49.6615 361.741 49.4898 361.368 49.3971 360.972C49.3045 360.576 49.2928 360.165 49.3629 359.764C49.433 359.363 49.5833 358.98 49.8048 358.639C50.0263 358.298 50.3143 358.006 50.6515 357.78L85.7224 334.267L64.5611 278.415L109.814 282.164L111.338 330.16C111.481 334.531 110.437 338.859 108.319 342.68C106.2 346.502 103.086 349.673 99.3098 351.854L61.6976 373.636C61.2422 373.901 60.7252 374.04 60.1989 374.04Z" fill="#2F2E41"/>
<path d="M93.2998 386.784C92.5237 386.783 91.7783 386.48 91.2204 385.938C90.6624 385.397 90.3353 384.659 90.3077 383.881L88.6492 337.123L109.185 336.037L107.55 383.13C107.526 383.877 107.226 384.587 106.708 385.123C106.191 385.659 105.493 385.982 104.751 386.03L93.5037 386.778C93.4355 386.782 93.3675 386.784 93.2998 386.784Z" fill="#2F2E41"/>
<path d="M115.051 291.447C109.826 291.447 91.5766 285.548 85.2411 283.445C84.2933 284.206 79.0866 288.114 73.0089 287.4C69.2587 286.958 65.9573 284.828 63.1963 281.067C57.0992 272.76 64.6299 237.14 72.021 208.721C73.5028 202.976 77.1455 198.032 82.1835 194.928C87.2215 191.823 93.2623 190.8 99.0361 192.074C103.221 193.001 107.065 195.081 110.137 198.081C113.209 201.08 115.386 204.88 116.425 209.054C117.817 214.74 116.62 221.428 115.746 226.312C115.335 228.608 115.01 230.422 115.121 231.313C115.55 234.758 117.933 288.783 116.401 291.09C116.238 291.336 115.766 291.447 115.051 291.447Z" fill="#F48A17"/>
<path d="M95.9367 291.542C96.7764 290.914 97.4689 290.11 97.9653 289.184C98.4617 288.259 98.7499 287.236 98.8098 286.187C98.8696 285.138 98.6996 284.088 98.3116 283.112C97.9237 282.136 97.3272 281.258 96.5643 280.538L96.8879 215.072L81.5269 217.639L86.0391 281.183C84.9197 282.55 84.3387 284.281 84.406 286.049C84.4733 287.817 85.1843 289.498 86.4043 290.775C87.6243 292.052 89.2686 292.835 91.0254 292.977C92.7823 293.118 94.5298 292.607 95.9367 291.542Z" fill="#FFB8B8"/>
<path d="M99.4904 257.115H82.9449C82.1548 257.113 81.3973 256.799 80.836 256.241C80.2748 255.682 79.9548 254.925 79.9453 254.132L79.5391 209.108C79.525 207.551 79.8186 206.007 80.4029 204.564C80.9871 203.122 81.8504 201.81 82.9428 200.705C84.0353 199.6 85.3352 198.723 86.7673 198.125C88.1995 197.528 89.7355 197.221 91.2866 197.223C92.8376 197.225 94.3729 197.535 95.8036 198.136C97.2343 198.738 98.5321 199.618 99.6218 200.726C100.712 201.834 101.572 203.147 102.152 204.591C102.733 206.035 103.023 207.58 103.005 209.136L102.49 254.139C102.478 254.931 102.157 255.686 101.596 256.243C101.035 256.799 100.279 257.113 99.4904 257.115Z" fill="#F48A17"/>
<path d="M96.1735 187.176C88.6778 187.19 81.6062 181.243 80.3073 173.832C79.8422 170.921 80.0519 167.941 80.92 165.125C81.8626 161.918 83.479 158.952 85.6604 156.426C87.8417 153.9 90.5373 151.872 93.5654 150.48C96.5934 149.088 99.8836 148.364 103.214 148.357C106.545 148.349 109.838 149.058 112.872 150.436C114.878 151.347 116.853 152.655 117.771 154.663C118.689 156.671 118.114 159.478 116.106 160.381C114.793 160.972 113.146 160.682 111.982 161.529C110.309 162.746 110.74 165.337 111.486 167.271C112.233 169.204 113.078 171.544 111.826 173.194C110.659 174.731 108.327 174.683 106.491 174.105C104.654 173.526 102.841 172.557 100.926 172.754C98.1324 173.042 96.1252 175.831 95.7536 178.624C95.3821 181.418 96.2567 184.21 97.1202 186.892L96.1735 187.176Z" fill="#2F2E41"/>
<path d="M172.642 401.792H0.66657C0.489785 401.792 0.32024 401.721 0.195233 401.596C0.0702273 401.47 0 401.3 0 401.123C0 400.945 0.0702273 400.775 0.195233 400.65C0.32024 400.524 0.489785 400.454 0.66657 400.454H172.642C172.819 400.454 172.988 400.524 173.113 400.65C173.238 400.775 173.308 400.945 173.308 401.123C173.308 401.3 173.238 401.47 173.113 401.596C172.988 401.721 172.819 401.792 172.642 401.792Z" fill="#CCCCCC"/>
</svg>
