<svg width="267" height="252" viewBox="0 0 267 252" fill="none" xmlns="http://www.w3.org/2000/svg">
<g clip-path="url(#clip0_118_414)">
<path d="M193.546 142.45V211.796L205.145 230.7L206.028 232.138H251.796L252.721 142.45H193.546Z" fill="#E6E6E6"/>
<path opacity="0.1" d="M193.546 142.45V211.796L205.145 230.7L205.857 142.45H193.546Z" fill="black"/>
<path d="M83.0544 140.601V209.947L71.455 228.851L70.5722 230.288H24.8039L23.8792 140.601H83.0544Z" fill="#E6E6E6"/>
<path opacity="0.1" d="M83.0542 140.601V209.947L71.4548 228.851L70.7429 140.601H83.0542Z" fill="black"/>
<path d="M266.589 139.214V143.375H17.8691V137.365L40.9843 125.345H246.248L266.589 139.214Z" fill="#E6E6E6"/>
<path opacity="0.1" d="M266.589 139.214V143.374H17.8691V137.365L266.589 139.214Z" fill="black"/>
<path d="M53.4669 160.018H42.3713L37.7483 156.782H58.5522L53.4669 160.018Z" fill="#3F3D56"/>
<path d="M53.4669 173.425H42.3713L37.7483 170.188H58.5522L53.4669 173.425Z" fill="#3F3D56"/>
<path d="M53.4669 192.379H42.3713L37.7483 189.143H58.5522L53.4669 192.379Z" fill="#3F3D56"/>
<path d="M53.4669 211.334H42.3713L37.7483 208.098H58.5522L53.4669 211.334Z" fill="#3F3D56"/>
<path d="M223.133 161.867H234.229L238.852 158.631H218.048L223.133 161.867Z" fill="#3F3D56"/>
<path d="M223.133 175.274H234.229L238.852 172.038H218.048L223.133 175.274Z" fill="#3F3D56"/>
<path d="M223.133 194.229H234.229L238.852 190.993H218.048L223.133 194.229Z" fill="#3F3D56"/>
<path d="M223.133 213.183H234.229L238.852 209.947H218.048L223.133 213.183Z" fill="#3F3D56"/>
<path d="M230.689 45.1531H137.281C136.817 45.153 136.358 45.2443 135.929 45.4219C135.501 45.5994 135.111 45.8596 134.783 46.1876C134.455 46.5156 134.195 46.9051 134.017 47.3337C133.84 47.7623 133.748 48.2217 133.749 48.6856V111.607C133.748 112.071 133.84 112.531 134.017 112.959C134.195 113.388 134.455 113.777 134.783 114.105C135.111 114.433 135.501 114.694 135.929 114.871C136.358 115.049 136.817 115.14 137.281 115.14H172.739L171.411 123.621C171.411 123.621 163.819 127.654 169.157 127.773C174.495 127.892 199.643 127.773 199.643 127.773C199.643 127.773 204.506 127.773 196.796 123.503L195.546 115.14H230.689C231.153 115.14 231.612 115.049 232.041 114.871C232.469 114.694 232.859 114.433 233.187 114.105C233.515 113.777 233.775 113.388 233.952 112.959C234.13 112.531 234.221 112.071 234.221 111.607V48.6856C234.221 48.2217 234.13 47.7623 233.952 47.3337C233.775 46.9051 233.515 46.5156 233.187 46.1876C232.859 45.8596 232.469 45.5994 232.041 45.4219C231.612 45.2443 231.153 45.153 230.689 45.1531Z" fill="#3F3D56"/>
<path d="M230.84 48.8899H137.129V101.321H230.84V48.8899Z" fill="#F2F2F2"/>
<path d="M183.985 47.8222C184.313 47.8222 184.579 47.5567 184.579 47.2291C184.579 46.9015 184.313 46.636 183.985 46.636C183.658 46.636 183.392 46.9015 183.392 47.2291C183.392 47.5567 183.658 47.8222 183.985 47.8222Z" fill="#F2F2F2"/>
<path d="M183.985 112.59C185.23 112.59 186.239 111.581 186.239 110.336C186.239 109.091 185.23 108.082 183.985 108.082C182.741 108.082 181.731 109.091 181.731 110.336C181.731 111.581 182.741 112.59 183.985 112.59Z" fill="#F2F2F2"/>
<path d="M180.473 134.179V135.365H116.655V134.416L116.742 134.179L118.315 129.908H179.168L180.473 134.179Z" fill="#3F3D56"/>
<path d="M205.032 133.018C204.916 133.515 204.477 134.039 203.486 134.535C199.927 136.314 192.691 134.06 192.691 134.06C192.691 134.06 187.116 133.111 187.116 130.62C187.272 130.513 187.436 130.416 187.604 130.33C189.101 129.538 194.061 127.585 202.857 130.412C203.505 130.616 204.084 130.995 204.529 131.508C204.727 131.702 204.875 131.94 204.962 132.202C205.05 132.465 205.074 132.744 205.032 133.018Z" fill="#3F3D56"/>
<path opacity="0.1" d="M205.032 133.018C200.677 134.687 196.794 134.811 192.81 132.044C191.303 130.93 189.478 130.329 187.604 130.33C189.101 129.538 194.061 127.585 202.857 130.412C203.505 130.616 204.084 130.995 204.529 131.508C204.727 131.702 204.875 131.94 204.963 132.202C205.05 132.465 205.074 132.744 205.032 133.018Z" fill="black"/>
<path d="M199.571 132.044C200.423 132.044 201.113 131.831 201.113 131.569C201.113 131.307 200.423 131.095 199.571 131.095C198.719 131.095 198.029 131.307 198.029 131.569C198.029 131.831 198.719 132.044 199.571 132.044Z" fill="#F2F2F2"/>
<path opacity="0.1" d="M180.473 134.178V135.365H116.655V134.416L116.742 134.178H180.473Z" fill="black"/>
<path d="M35.4841 1.31782e-05C34.8364 -0.0531647 34.1878 0.091717 33.6243 0.41546C33.071 0.794359 32.7223 1.45815 32.3664 2.07585C31.0054 4.46576 29.1629 6.54697 26.9557 8.18766C25.3479 9.36544 23.304 10.834 23.579 13.0055C23.7241 13.7226 23.9891 14.4102 24.3627 15.0393C25.8458 18.0332 29.8931 20.3469 29.495 23.7632C30.9685 21.2963 28.9976 20.0765 30.4711 17.6097C31.1728 16.4349 32.3919 15.1088 33.4514 15.8466C33.8061 16.0936 34.0391 16.5367 34.4084 16.7534C35.2898 17.2706 36.2274 16.2818 37.0076 15.5815C39.6979 13.1665 43.5237 13.7991 46.8714 14.5516C48.4519 14.9068 50.1878 15.3729 51.1221 16.8834C52.3505 18.8695 49.955 21.0144 49.3498 23.2598C49.3004 23.4512 49.298 23.6516 49.343 23.8441C49.3879 24.0365 49.4788 24.2152 49.6079 24.3648C49.7369 24.5145 49.9003 24.6306 50.084 24.7034C50.2677 24.7761 50.4664 24.8033 50.6629 24.7825C51.6674 24.6835 52.8573 24.6022 52.9168 24.1614C54.1806 24.2064 55.7292 24.0633 56.2707 22.7473C56.4362 22.2266 56.5237 21.6843 56.5303 21.138C56.729 18.9274 57.6672 16.9107 58.2888 14.8068C58.9103 12.7029 59.1806 10.2372 58.1317 8.37181C57.7573 7.75117 57.2944 7.18851 56.7575 6.70164C50.8052 0.9414 42.9792 -0.00853717 35.4841 1.31782e-05Z" fill="#2F2E41"/>
<path d="M30.7894 28.0783C30.7894 28.0783 32.0839 38.866 27.3374 39.729C22.5908 40.592 31.6524 55.2632 31.6524 55.2632L53.2277 57.8522L48.0497 40.592C48.0497 40.592 44.5976 39.2975 46.7551 30.6674C48.9127 22.0373 30.7894 28.0783 30.7894 28.0783Z" fill="#FFB8B8"/>
<path d="M17.6284 213.41L19.3546 237.143H28.4159L25.8272 213.41H17.6284Z" fill="#FFB8B8"/>
<path d="M84.0803 168.533L85.3747 188.382L95.2996 184.067L91.4158 167.67L84.0803 168.533Z" fill="#FFB8B8"/>
<path d="M11.156 122.794C11.156 122.794 11.5875 147.821 14.1766 156.019C16.7656 164.218 16.3341 164.649 15.9026 165.944C15.4711 167.238 15.0396 166.375 15.0396 168.533C15.0396 170.691 14.1766 204.779 15.0396 207.8C15.9026 210.82 12.4505 215.999 15.0396 216.43C17.6286 216.862 29.7108 216.43 30.1423 213.841C30.5738 211.252 26.6902 210.389 28.4163 208.663C30.1423 206.937 32.7313 171.554 32.7313 171.554L38.7724 146.958L49.9915 134.013H73.7243L81.0599 162.492C81.0599 162.492 78.0394 170.691 80.1969 170.691C82.3545 170.691 95.2996 173.28 95.2996 163.786C95.2996 154.293 90.9846 126.246 90.1216 125.383C89.2585 124.52 90.553 121.499 89.2585 120.204C87.964 118.91 72.8613 109.848 67.2518 108.122C61.6422 106.396 53.7729 104.342 53.7729 104.342L11.156 122.794Z" fill="#2F2E41"/>
<path d="M95.2996 180.615C95.2996 180.615 88.827 178.458 85.8065 184.931C82.7859 191.403 84.0805 193.129 84.0805 193.129C84.0805 193.129 94.0051 196.581 95.7311 194.855C96.482 194.104 98.8666 193.843 101.321 193.788C105.059 193.704 106.054 188.415 102.523 187.184C102.418 187.147 102.312 187.115 102.204 187.088C98.7516 186.225 95.2996 180.615 95.2996 180.615Z" fill="#2F2E41"/>
<path d="M40.4984 35.1981C47.6478 35.1981 53.4436 29.4024 53.4436 22.253C53.4436 15.1036 47.6478 9.30786 40.4984 9.30786C33.349 9.30786 27.5532 15.1036 27.5532 22.253C27.5532 29.4024 33.349 35.1981 40.4984 35.1981Z" fill="#FFB8B8"/>
<path d="M23.6695 45.1227C23.6695 45.1227 44.8132 49.4378 49.9913 42.5337C55.1693 35.6296 57.3268 61.9514 57.3268 61.9514L59.9159 89.5678L56.0323 104.67C56.0323 104.67 35.7516 121.068 29.279 122.362C22.8065 123.657 12.8818 124.52 12.8818 124.52C12.8818 124.52 15.9024 76.6226 15.9024 75.7596C15.9024 74.8966 23.6695 45.1227 23.6695 45.1227Z" fill="#F48A17"/>
<path d="M30.0999 37.03C30.0999 37.03 25.3956 34.3351 24.1011 36.9242C22.8066 39.5132 10.7245 45.9857 9.42994 45.9857C8.13542 45.9857 12.019 81.8006 10.2929 86.1157C8.56693 90.4307 0.368331 121.931 5.11489 124.52C9.86145 127.109 6.4094 121.931 11.156 128.403C15.9025 134.876 39.2038 134.876 40.4983 132.287C41.7928 129.698 30.1422 110.28 32.2997 92.1568C34.4572 74.0336 37.9093 49.0063 34.8887 45.5542C31.8682 42.1022 30.0999 37.03 30.0999 37.03Z" fill="#2F2E41"/>
<path d="M45.6763 39.9446L46.2773 37.8762C46.2773 37.8762 64.231 43.8282 65.094 47.7118C65.957 51.5953 65.5255 78.7802 62.505 80.9377C59.4844 83.0952 55.1694 86.5473 58.1899 91.7253C61.2105 96.9034 64.6625 102.513 67.2515 102.944C69.8406 103.376 74.5871 106.397 73.2926 109.417C71.9981 112.438 56.4639 106.828 56.4639 106.828C56.4639 106.828 46.1078 99.0609 46.5393 86.9787C46.9708 74.8966 45.6763 39.9446 45.6763 39.9446Z" fill="#2F2E41"/>
<path d="M60.7791 90.8623L50.423 110.28C50.423 110.28 35.3204 125.814 43.9505 127.54C52.5806 129.266 57.3271 113.301 57.3271 113.301L68.5463 97.3349L60.7791 90.8623Z" fill="#FFB8B8"/>
<path d="M36.1147 3.38718C35.5929 3.34852 35.0703 3.44989 34.6008 3.68082C34.1763 3.99085 33.8264 4.3918 33.5767 4.85438C32.4258 6.58565 30.9255 8.05708 29.1722 9.17417C27.8635 10.0066 26.1996 11.0446 26.4235 12.5794C26.545 13.094 26.7614 13.5815 27.0614 14.0168C28.2729 16.1543 28.7552 18.6283 28.4353 21.0643L32.0339 15.8336C32.6052 15.0033 33.5975 14.066 34.46 14.5875C34.7488 14.7621 34.9384 15.0752 35.2391 15.2284C35.9566 15.594 36.7198 14.8951 37.3549 14.4001C39.5449 12.6932 42.6593 13.1404 45.3845 13.6722C46.671 13.9233 48.0842 14.2527 48.8447 15.3203C50.1086 17.0945 48.7889 19.6582 49.5265 21.7078C49.733 21.5632 49.9084 21.3787 50.0422 21.1651C50.176 20.9515 50.2656 20.7132 50.3057 20.4644C51.3345 20.4962 52.5951 20.395 53.0359 19.4649C53.17 19.1003 53.2414 18.7158 53.2472 18.3274C53.409 16.765 54.1727 15.3396 54.6787 13.8525C55.1847 12.3655 55.4047 10.6228 54.5508 9.30432C54.2384 8.8576 53.8614 8.45977 53.4322 8.12385C48.5867 4.05255 42.2161 3.38114 36.1147 3.38718Z" fill="#2F2E41"/>
<path d="M60.7792 45.9858L64.7996 47.053C64.7996 47.053 74.1559 71.0131 71.9983 87.4103C69.8408 103.807 68.5463 100.355 68.5463 100.355C68.5463 100.355 65.0943 92.5883 57.3271 94.3143L60.7792 45.9858Z" fill="#2F2E41"/>
<path d="M18.2264 234.006C17.1859 235.42 17.3945 237.441 16.4728 238.936C15.6738 240.231 14.168 240.91 13.1687 242.058C12.8498 242.439 12.5655 242.848 12.3192 243.28C11.3921 244.832 10.6386 246.823 11.5516 248.384C12.2861 249.64 13.8299 250.13 15.2458 250.465C17.0354 250.888 18.8947 251.226 20.705 250.903C22.5152 250.58 24.2844 249.472 24.9298 247.75C25.0567 247.317 25.2075 246.891 25.3815 246.475C26.3627 244.543 29.4402 244.522 30.4444 242.603C31.1471 241.259 30.5011 239.635 29.8554 238.263L27.8833 234.074C27.2288 232.683 24.5758 233.483 23.1926 233.15C21.3888 232.715 19.5241 232.236 18.2264 234.006Z" fill="#2F2E41"/>
<path d="M3.82031 99.4924L21.9435 127.54C21.9435 127.54 33.1626 141.78 36.6147 135.307C40.0667 128.835 24.5325 118.047 24.5325 118.047L12.8819 96.4719L3.82031 99.4924Z" fill="#FFB8B8"/>
<path d="M12.882 46.8489L9.42992 45.9858C9.42992 45.9858 2.52585 48.1434 0.799829 57.205C-0.926188 66.2666 0.368322 102.513 2.52585 102.944C4.68337 103.376 13.1818 96.6333 14.5422 98.0629C15.9025 99.4925 11.5874 92.1569 12.8819 88.2733C14.1764 84.3898 12.882 46.8489 12.882 46.8489Z" fill="#2F2E41"/>
<path d="M175.116 66.1099H163.963V68.7948H175.116V66.1099Z" fill="#55A2A1"/>
<path d="M213.737 66.1099H209.813V68.7948H213.737V66.1099Z" fill="#55A2A1"/>
<path d="M221.585 66.1099H217.661V68.7948H221.585V66.1099Z" fill="#55A2A1"/>
<path d="M205.682 66.1099H179.04V68.7948H205.682V66.1099Z" fill="#55A2A1"/>
<path d="M161.071 83.4585H149.919V86.1434H161.071V83.4585Z" fill="#55A2A1"/>
<path d="M199.693 83.4585H195.769V86.1434H199.693V83.4585Z" fill="#55A2A1"/>
<path d="M207.541 83.4585H203.617V86.1434H207.541V83.4585Z" fill="#55A2A1"/>
<path d="M191.638 83.4585H164.996V86.1434H191.638V83.4585Z" fill="#55A2A1"/>
<path d="M207.128 72.0994H195.975V74.7843H207.128V72.0994Z" fill="#55A2A1"/>
<path d="M222.205 72.0994H211.052V74.7843H222.205V72.0994Z" fill="#55A2A1"/>
<path d="M153.843 72.0994H149.919V74.7843H153.843V72.0994Z" fill="#55A2A1"/>
<path d="M161.691 72.0994H157.767V74.7843H161.691V72.0994Z" fill="#55A2A1"/>
<path d="M192.258 72.0994H165.615V74.7843H192.258V72.0994Z" fill="#55A2A1"/>
<path d="M183.996 77.8821H172.844V80.567H183.996V77.8821Z" fill="#55A2A1"/>
<path d="M168.92 77.8821H157.767V80.567H168.92V77.8821Z" fill="#55A2A1"/>
<path d="M153.843 77.8821H149.919V80.567H153.843V77.8821Z" fill="#55A2A1"/>
<path d="M222.205 77.8821H218.281V80.567H222.205V77.8821Z" fill="#55A2A1"/>
<path d="M214.356 77.8821H187.714V80.567H214.356V77.8821Z" fill="#55A2A1"/>
</g>
<defs>
<clipPath id="clip0_118_414">
<rect width="266.59" height="251.031" fill="white"/>
</clipPath>
</defs>
</svg>
